<?xml version="1.0" encoding="UTF-8"?>
<svg id="Layer_2" data-name="Layer 2" xmlns="http://www.w3.org/2000/svg" viewBox="0 0 70.85 23.72">
  <defs>
    <style>
      .cls-1 {
        fill: #fff;
        stroke-width: 0px;
      }
    </style>
  </defs>
  <g id="Layer_1-2" data-name="Layer 1">
    <path class="cls-1" d="M6.91,23.72c-1.49,0-2.78-.27-3.87-.81s-2-1.18-2.72-1.93l2.7-3.02c.38.46.91.85,1.57,1.17.66.32,1.33.49,2,.49.91,0,1.73-.26,2.47-.77.73-.52,1.31-1.38,1.75-2.59.43-1.21.65-2.86.65-4.95,0-1.9-.17-3.39-.52-4.48-.35-1.09-.82-1.87-1.4-2.32-.59-.46-1.23-.68-1.93-.68-.53,0-1.02.13-1.48.4-.46.26-.82.68-1.1,1.24-.28.56-.41,1.29-.41,2.18,0,.82.13,1.48.4,1.98.26.5.64.88,1.12,1.12.48.24,1.02.36,1.62.36s1.26-.19,1.91-.58c.65-.38,1.25-1.03,1.8-1.94l.22,3.35c-.6.86-1.37,1.54-2.3,2.03-.94.49-1.8.74-2.59.74-1.3,0-2.46-.25-3.49-.76-1.03-.5-1.84-1.28-2.41-2.32s-.86-2.37-.86-3.98.34-2.95,1.03-4.09c.68-1.14,1.6-2.02,2.74-2.63,1.14-.61,2.39-.92,3.76-.92,1.1,0,2.17.22,3.19.65,1.02.43,1.93,1.1,2.74,2.02.8.91,1.45,2.08,1.93,3.51.48,1.43.72,3.14.72,5.13,0,2.14-.25,3.99-.76,5.56-.5,1.57-1.19,2.86-2.05,3.87-.86,1.01-1.85,1.76-2.95,2.25s-2.24.74-3.42.74Z"/>
    <path class="cls-1" d="M24.9,23.72c-2.42,0-4.37-1.02-5.85-3.06-1.48-2.04-2.21-5-2.21-8.89s.74-6.85,2.21-8.82c1.48-1.97,3.43-2.95,5.85-2.95s4.41.99,5.89,2.97,2.21,4.91,2.21,8.8-.74,6.85-2.21,8.89c-1.48,2.04-3.44,3.06-5.89,3.06ZM24.9,19.8c.62,0,1.19-.23,1.69-.7.5-.47.9-1.28,1.19-2.45.29-1.16.43-2.79.43-4.88s-.14-3.73-.43-4.86c-.29-1.13-.68-1.91-1.19-2.34-.5-.43-1.07-.65-1.69-.65s-1.15.22-1.66.65c-.5.43-.9,1.21-1.19,2.34-.29,1.13-.43,2.75-.43,4.86s.14,3.71.43,4.88c.29,1.16.68,1.98,1.19,2.45.5.47,1.06.7,1.66.7Z"/>
    <path class="cls-1" d="M41.81,23.72c-2.42,0-4.37-1.02-5.85-3.06-1.48-2.04-2.21-5-2.21-8.89s.74-6.85,2.21-8.82c1.48-1.97,3.43-2.95,5.85-2.95s4.41.99,5.89,2.97,2.21,4.91,2.21,8.8-.74,6.85-2.21,8.89c-1.48,2.04-3.44,3.06-5.89,3.06ZM41.81,19.8c.62,0,1.19-.23,1.69-.7.5-.47.9-1.28,1.19-2.45.29-1.16.43-2.79.43-4.88s-.14-3.73-.43-4.86c-.29-1.13-.68-1.91-1.19-2.34-.5-.43-1.07-.65-1.69-.65s-1.15.22-1.66.65c-.5.43-.9,1.21-1.19,2.34-.29,1.13-.43,2.75-.43,4.86s.14,3.71.43,4.88c.29,1.16.68,1.98,1.19,2.45.5.47,1.06.7,1.66.7Z"/>
    <path class="cls-1" d="M59.68,20.54v-7.38h-7.06v-3.99h7.06V1.78h4.11v7.38h7.06v3.99h-7.06v7.38h-4.11Z"/>
  </g>
</svg>