<?xml version="1.0" encoding="utf-8"?>
<!-- Generator: Adobe Illustrator 26.5.0, SVG Export Plug-In . SVG Version: 6.00 Build 0)  -->
<svg version="1.1" id="Layer_1" xmlns="http://www.w3.org/2000/svg" xmlns:xlink="http://www.w3.org/1999/xlink" x="0px" y="0px"
	 viewBox="0 0 106 106.9" style="enable-background:new 0 0 106 106.9;" xml:space="preserve">
<style type="text/css">
	.st0{fill:#839EC8;}
	.st1{fill:#005595;}
	.st2{fill:#FAB816;}
	.st3{fill:#678BBB;}
	.st4{fill:#4979AF;}
</style>
<g>
	<g>
		<path class="st0" d="M18.7,33.5C21.8,47.8,36.1,56.8,49,54.2c-9.8-2.7-18-11.3-20.6-22.8C25.9,19.9,29.8,8.7,37.5,2
			C24.8,5.1,15.6,19.3,18.7,33.5"/>
	</g>
	<g>
		<path class="st1" d="M99.2,79.9c14.3-25.2,5.1-57.4-17.4-70.8c10.8,17.1,11.6,40.7,0.1,61s-32.2,31.8-52.4,31.3
			C52.6,113.7,85,105,99.2,79.9"/>
	</g>
</g>
<path class="st2" d="M48.5,1.7C36.5,6.5,30.8,20.3,35,31.2c0.9-9,7.2-17.4,16.8-21.3s20-2.2,27,3.6C74.2,2.8,60.4-3.1,48.5,1.7"/>
<g>
	<g>
		<path class="st3" d="M25.1,68.2c16.8,7,36.3-1.1,43-16.2c-9.9,8.1-24.6,10.3-38.1,4.7C16.3,51,7.6,38.9,6.4,26.2
			C0.4,41.5,8.3,61.1,25.1,68.2"/>
	</g>
	<g>
		<path class="st4" d="M46.9,90.8c21.4-4.4,35.2-25.7,31.6-45.1c-4.3,14.7-17.4,26.9-34.7,30.4C26.6,79.7,9.8,73.6,0,61.9
			C4.4,81.1,25.5,95.2,46.9,90.8"/>
	</g>
</g>
</svg>
