<?xml version="1.0" encoding="UTF-8"?>
<svg id="Layer_2" data-name="Layer 2" xmlns="http://www.w3.org/2000/svg" width="326.95" height="57.96" viewBox="0 0 326.95 57.96">
  <defs>
    <style>
      .cls-1 {
        fill: #0d846e;
      }

      .cls-1, .cls-2, .cls-3 {
        stroke-width: 0px;
      }

      .cls-2 {
        fill: #ee8b22;
      }

      .cls-3 {
        fill: #ed8b22;
      }
    </style>
  </defs>
  <g id="Layer_1-2" data-name="Layer 1">
    <g>
      <path class="cls-2" d="M38.44,52.42c0-.09-.35-4.82-2.54-10.33-2.19-5.52-5.34-8.67-5.43-8.75-.53-.53-1.23-.79-1.84-.79-.7,0-1.31.26-1.84.79-.09.09-3.15,3.24-5.43,8.75-2.19,5.52-2.54,10.24-2.54,10.33v.61c0,2.98,4.9,3.15,4.99-.44v-.18l.09-.7s.09-.88.26-2.28c.26-1.4.7-3.33,1.4-5.17.79-1.84,1.66-3.33,2.36-4.29.26-.35,1.14-.35,1.31,0,.7.96,1.58,2.45,2.36,4.29.79,1.84,1.23,3.76,1.4,5.17.26,1.4.26,2.28.26,2.28l.09.7v.18c.09,3.59,4.9,3.5,4.99.44,0,0,.09-.61.09-.61Z"/>
      <path class="cls-2" d="M55.07,25.71c-.09,0-4.64-1.14-10.51-.79-5.87.44-9.81,2.45-9.89,2.45-.61.35-1.14.88-1.31,1.58-.18.61-.18,1.4.18,2.01.09.09,2.1,4.11,6.57,7.88,4.47,3.85,8.84,5.6,8.93,5.6l.53.18c2.8.88,4.47-3.68,1.05-4.9h-.09l-.61-.26s-.79-.35-2.1-1.05c-1.23-.7-2.89-1.66-4.47-2.98-1.49-1.31-2.63-2.63-3.33-3.59-.26-.35,0-1.14.44-1.31,1.14-.35,2.8-.79,4.82-.96,2.01-.18,3.94,0,5.34.26,1.4.18,2.28.44,2.28.44l.7.18h.18c3.41,1.05,4.82-3.68,2.01-4.64l-.7-.09Z"/>
      <path class="cls-3" d="M35.11,1.46c-.09.09-2.54,4.11-3.94,9.89-1.49,5.78-.79,10.16-.79,10.33.09.7.53,1.31,1.05,1.75.53.35,1.23.61,1.93.44.09,0,4.47-.7,9.46-3.85s7.97-6.83,8.05-6.92l.35-.53c1.75-2.45-2.1-5.43-4.29-2.54l-.09.09-.44.53s-.53.7-1.58,1.66c-1.05.96-2.45,2.28-4.2,3.33-1.66,1.05-3.24,1.75-4.47,2.1-.44.18-1.14-.35-1.05-.79,0-1.23.09-2.98.61-4.9.44-1.93,1.23-3.76,1.84-5.08.61-1.31,1.14-2.1,1.14-2.1l.44-.44.09-.18c2.01-2.98-1.93-5.78-3.76-3.33l-.35.53Z"/>
      <path class="cls-1" d="M6.13,13.19c.09.09,3.06,3.76,8.05,6.92,4.99,3.15,9.37,3.85,9.46,3.85.7.09,1.4-.09,1.93-.44.53-.44.96-1.05,1.05-1.75,0-.09.7-4.55-.7-10.33-1.4-5.78-3.94-9.81-3.94-9.89l-.35-.53c-1.75-2.45-5.78.35-3.76,3.33l.09.18.35.61s.44.79,1.14,2.1c.61,1.31,1.4,3.06,1.84,5.08.44,1.93.61,3.68.61,4.9,0,.44-.7.96-1.05.79-1.14-.35-2.71-1.05-4.47-2.1-1.66-1.05-3.15-2.36-4.2-3.33-1.05-.96-1.58-1.66-1.58-1.66l-.44-.53-.09-.09c-2.19-2.89-6.04.09-4.29,2.54l.35.35Z"/>
      <path class="cls-2" d="M8.15,44.62c.09,0,4.47-1.84,8.93-5.6,4.47-3.85,6.57-7.79,6.57-7.88.35-.61.35-1.4.18-2.01-.18-.61-.7-1.23-1.31-1.58-.09-.09-4.03-2.1-9.89-2.45-5.87-.44-10.42.79-10.51.79l-.61.18c-2.8.96-1.4,5.69,2.01,4.64h.18l.7-.18s.88-.26,2.28-.44,3.33-.35,5.34-.26c2.01.18,3.68.53,4.82.96.44.18.7.96.44,1.31-.7.96-1.84,2.28-3.33,3.59-1.49,1.31-3.15,2.28-4.47,2.98-1.23.7-2.1.96-2.1.96l-.61.26-.18.09c-3.33,1.23-1.75,5.78,1.05,4.9,0,0,.53-.26.53-.26Z"/>
    </g>
    <g>
      <path class="cls-1" d="M68.16,54.43V.88h11.64l14.76,27.63c.93,1.8,1.83,3.75,2.71,5.82.88,2.08,1.72,4.18,2.54,6.31h.33c-.28-2.95-.57-6.1-.9-9.43-.33-3.33-.49-6.5-.49-9.51V.88h10.58v53.55h-11.81l-14.6-27.63c-.93-1.8-1.85-3.73-2.75-5.78-.9-2.05-1.76-4.14-2.58-6.27h-.33c.27,2.9.57,5.99.9,9.27s.49,6.51.49,9.68v20.75h-10.5Z"/>
      <path class="cls-1" d="M115.71,54.43v-6.81c4.54-4.1,8.53-7.91,11.97-11.44,3.44-3.53,6.13-6.76,8.08-9.72,1.94-2.95,2.91-5.68,2.91-8.2s-.69-4.66-2.05-6.11c-1.37-1.45-3.31-2.17-5.82-2.17-1.91,0-3.66.55-5.25,1.64-1.59,1.09-3.03,2.38-4.35,3.85l-5.82-5.74c2.46-2.73,4.99-4.82,7.59-6.27,2.6-1.45,5.7-2.17,9.31-2.17,3.39,0,6.36.68,8.9,2.05,2.54,1.37,4.52,3.27,5.95,5.7,1.42,2.43,2.13,5.26,2.13,8.49s-.86,6.37-2.58,9.43c-1.72,3.06-4.01,6.14-6.85,9.22-2.84,3.09-5.9,6.27-9.18,9.55,1.31-.16,2.79-.3,4.43-.41,1.64-.11,3.06-.16,4.27-.16h12.38v9.27h-36Z"/>
      <path class="cls-1" d="M169.26,54.43V10.15h-15.09V.88h41.16v9.27h-15.01v44.28h-11.07Z"/>
    </g>
    <g>
      <path class="cls-1" d="M216.06,22.24l3.41-17.06h9.41l-.34,1.69h-7.41l-1.17,5.93h6.27l-.34,1.72h-6.24l-1.56,7.72h-2.03Z"/>
      <path class="cls-1" d="M226.44,22.24l2.52-12.64h1.64l-.29,2.42h.1c.5-.76,1.08-1.41,1.74-1.94.66-.53,1.38-.79,2.16-.79.23,0,.44.02.65.05.21.04.39.1.55.18l-.7,1.74c-.12-.07-.27-.12-.46-.14-.18-.03-.39-.04-.64-.04-.62,0-1.27.27-1.92.81-.66.54-1.26,1.33-1.79,2.37l-1.59,7.98h-1.98Z"/>
      <path class="cls-1" d="M238.47,22.56c-.92,0-1.72-.2-2.39-.61s-1.2-.99-1.56-1.75c-.36-.76-.55-1.66-.55-2.7,0-1.21.19-2.31.57-3.3.38-.99.9-1.85,1.55-2.59.65-.74,1.38-1.3,2.2-1.7.81-.4,1.65-.6,2.5-.6.92,0,1.72.2,2.39.61s1.2.99,1.57,1.75c.37.76.56,1.66.56,2.7,0,1.2-.19,2.29-.58,3.29-.39,1-.91,1.86-1.56,2.59-.65.73-1.38,1.3-2.2,1.7s-1.65.61-2.5.61ZM238.68,20.89c.59,0,1.16-.17,1.7-.49s1.04-.79,1.47-1.38c.43-.59.78-1.27,1.04-2.04.26-.77.39-1.6.39-2.48,0-1.16-.23-2.04-.69-2.65-.46-.61-1.13-.91-2.01-.91-.57,0-1.14.17-1.69.51s-1.05.8-1.48,1.39c-.43.59-.78,1.27-1.04,2.04-.26.77-.39,1.6-.39,2.48,0,1.14.23,2.02.7,2.63s1.14.91,2,.91Z"/>
      <path class="cls-1" d="M245.83,22.24l2.52-12.64h1.64l-.18,1.9h.1c.66-.62,1.35-1.15,2.08-1.57.73-.42,1.41-.64,2.05-.64,1,0,1.72.24,2.14.71.42.48.68,1.06.77,1.76.81-.78,1.6-1.39,2.37-1.82s1.46-.65,2.11-.65c1.06,0,1.82.28,2.29.85.47.56.7,1.33.7,2.3,0,.29-.02.57-.05.83-.04.26-.09.56-.16.91l-1.61,8.06h-2l1.59-7.8c.07-.35.12-.62.16-.83.03-.21.05-.42.05-.65,0-.64-.15-1.13-.44-1.46-.29-.33-.76-.49-1.4-.49-.36,0-.86.18-1.48.55-.62.36-1.32.94-2.08,1.74l-1.79,8.94h-1.98l1.56-7.8c.07-.35.12-.62.16-.83.03-.21.05-.42.05-.65,0-.64-.15-1.13-.44-1.46-.29-.33-.75-.49-1.38-.49-.36,0-.86.18-1.5.55-.63.36-1.32.94-2.07,1.74l-1.79,8.94h-1.98Z"/>
      <path class="cls-1" d="M269.31,22.24l3.41-17.06h2.13l3.82,10.87c.09.26.2.6.33,1.01s.26.85.38,1.3c.12.45.23.88.34,1.27h.1c.1-.88.22-1.79.35-2.7s.28-1.81.46-2.68l1.79-9.07h1.98l-3.43,17.06h-2.08l-3.82-10.89c-.14-.4-.31-.94-.52-1.62s-.39-1.37-.55-2.04h-.1c-.09.88-.2,1.79-.34,2.7-.14.92-.3,1.81-.49,2.68l-1.79,9.18h-1.95Z"/>
      <path class="cls-1" d="M287.85,22.56c-1.09,0-1.97-.39-2.64-1.18-.67-.79-1-1.92-1-3.39,0-1.23.19-2.37.57-3.42.38-1.05.89-1.96,1.53-2.74.64-.78,1.37-1.4,2.18-1.85.81-.45,1.66-.68,2.55-.68.68,0,1.28.17,1.82.52s.95.81,1.25,1.38h.08l.49-1.59h1.61l-2.52,12.64h-1.64l.21-1.87h-.1c-.61.64-1.29,1.17-2.05,1.57s-1.54.61-2.34.61ZM288.58,20.89c.68,0,1.35-.2,2.03-.6.68-.4,1.33-1,1.95-1.82l1.14-5.64c-.35-.68-.74-1.16-1.18-1.44-.44-.29-.91-.43-1.39-.43-.64,0-1.25.18-1.83.55-.58.36-1.1.86-1.55,1.5s-.81,1.35-1.08,2.16-.4,1.64-.4,2.51c0,1.09.21,1.9.62,2.43.42.53.98.79,1.69.79Z"/>
      <path class="cls-1" d="M296.64,22.24l2.52-12.64h1.64l-.18,1.9h.1c.66-.62,1.35-1.15,2.08-1.57.73-.42,1.41-.64,2.05-.64,1,0,1.72.24,2.14.71.42.48.68,1.06.77,1.76.81-.78,1.6-1.39,2.37-1.82s1.46-.65,2.11-.65c1.06,0,1.82.28,2.29.85.47.56.7,1.33.7,2.3,0,.29-.02.57-.05.83-.04.26-.09.56-.16.91l-1.61,8.06h-2l1.59-7.8c.07-.35.12-.62.16-.83.03-.21.05-.42.05-.65,0-.64-.15-1.13-.44-1.46-.29-.33-.76-.49-1.4-.49-.36,0-.86.18-1.48.55-.62.36-1.32.94-2.08,1.74l-1.79,8.94h-1.98l1.56-7.8c.07-.35.12-.62.16-.83.03-.21.05-.42.05-.65,0-.64-.15-1.13-.44-1.46-.29-.33-.75-.49-1.38-.49-.36,0-.86.18-1.5.55-.63.36-1.32.94-2.07,1.74l-1.79,8.94h-1.98Z"/>
      <path class="cls-1" d="M321.31,22.56c-1.53,0-2.75-.46-3.67-1.38-.92-.92-1.38-2.22-1.38-3.9,0-1.2.2-2.28.58-3.25s.91-1.81,1.56-2.52c.65-.71,1.37-1.26,2.17-1.64.8-.38,1.6-.57,2.42-.57.95,0,1.72.2,2.3.6.58.4,1,.94,1.26,1.64s.39,1.47.39,2.34c0,.35-.02.67-.07.97-.04.3-.1.59-.17.85s-.14.49-.21.7h-8.76l.21-1.53h7.15c.05-.21.09-.4.1-.57.02-.17.03-.36.03-.57,0-.48-.08-.94-.23-1.36-.16-.42-.41-.77-.77-1.04s-.84-.4-1.44-.4c-.5,0-1.02.14-1.56.42s-1.03.68-1.47,1.21c-.44.53-.8,1.17-1.08,1.91s-.42,1.59-.42,2.52c0,1.02.15,1.82.44,2.39.29.57.7.97,1.22,1.21.52.23,1.11.35,1.77.35.55,0,1.07-.09,1.55-.27.48-.18.91-.42,1.31-.72l.75,1.25c-.5.4-1.09.73-1.75.99s-1.42.39-2.25.39Z"/>
      <path class="cls-1" d="M219.91,52.48c-1.06,0-1.82-.27-2.27-.82-.46-.55-.69-1.23-.69-2.04,0-.22.01-.45.04-.66s.06-.45.09-.69l1.48-7.05h-1.87l.34-1.48,1.95-.13,1.07-4.03h1.66l-.78,4.03h3.2l-.34,1.61h-3.25l-1.48,7.15c-.02.16-.04.3-.05.44s-.03.3-.03.49c0,.5.12.88.35,1.14.23.26.63.39,1.18.39.26,0,.5-.03.73-.09.22-.06.43-.13.62-.22l.47,1.33c-.28.16-.62.3-1.04.43s-.88.2-1.38.2Z"/>
      <path class="cls-1" d="M227.5,52.56c-.92,0-1.72-.2-2.39-.61s-1.2-.99-1.56-1.75c-.36-.76-.55-1.66-.55-2.7,0-1.21.19-2.31.57-3.3.38-.99.9-1.85,1.55-2.59.65-.74,1.38-1.3,2.2-1.7.81-.4,1.65-.6,2.5-.6.92,0,1.72.2,2.39.61s1.2.99,1.57,1.75c.37.76.56,1.66.56,2.7,0,1.2-.19,2.29-.58,3.29-.39,1-.91,1.86-1.56,2.59-.65.73-1.38,1.3-2.2,1.7s-1.65.61-2.5.61ZM227.71,50.89c.59,0,1.16-.17,1.7-.49s1.04-.79,1.47-1.38c.43-.59.78-1.27,1.04-2.04.26-.77.39-1.6.39-2.48,0-1.16-.23-2.04-.69-2.65-.46-.61-1.13-.91-2.01-.91-.57,0-1.14.17-1.69.51s-1.05.8-1.48,1.39c-.43.59-.78,1.27-1.04,2.04-.26.77-.39,1.6-.39,2.48,0,1.14.23,2.02.7,2.63s1.14.91,2,.91Z"/>
      <path class="cls-1" d="M242.27,52.24l3.04-15.34h-4.94l.34-1.72h11.93l-.34,1.72h-4.97l-3.04,15.34h-2.03Z"/>
      <path class="cls-1" d="M250.72,52.24l3.69-18.51h2l-1.25,6.11-.42,1.59h.1c.71-.62,1.42-1.13,2.13-1.53.71-.4,1.45-.6,2.21-.6,1.07,0,1.84.28,2.3.85.46.56.69,1.33.69,2.3,0,.29-.01.57-.04.83-.03.26-.08.56-.17.91l-1.61,8.06h-1.98l1.56-7.8c.07-.35.12-.62.16-.83.03-.21.05-.42.05-.65,0-.64-.15-1.13-.46-1.46-.3-.33-.78-.49-1.42-.49-.5,0-1.06.18-1.68.55-.62.36-1.32.94-2.12,1.74l-1.79,8.94h-1.98Z"/>
      <path class="cls-1" d="M263.02,52.24l2.52-12.64h2l-2.52,12.64h-2ZM267.18,36.98c-.33,0-.62-.1-.88-.3s-.39-.49-.39-.87c0-.42.16-.77.47-1.07.31-.29.66-.44,1.04-.44.35,0,.65.1.9.31s.38.5.38.88c0,.43-.15.79-.44,1.07-.29.28-.65.42-1.07.42Z"/>
      <path class="cls-1" d="M267.88,52.24l2.52-12.64h1.64l-.18,1.9h.1c.68-.62,1.38-1.15,2.12-1.57s1.5-.64,2.28-.64c1.07,0,1.84.28,2.3.85.46.56.69,1.33.69,2.3,0,.29-.01.57-.04.83-.03.26-.08.56-.17.91l-1.61,8.06h-1.98l1.56-7.8c.07-.35.12-.62.16-.83.03-.21.05-.42.05-.65,0-.64-.15-1.13-.46-1.46-.3-.33-.78-.49-1.42-.49-.5,0-1.06.18-1.68.55-.62.36-1.32.94-2.12,1.74l-1.79,8.94h-1.98Z"/>
      <path class="cls-1" d="M283.87,57.96c-.82,0-1.6-.15-2.37-.44-.76-.29-1.44-.73-2.03-1.3l.91-1.25c.47.4,1.01.72,1.62.97.62.25,1.26.38,1.94.38,1.06,0,1.91-.33,2.56-.99.65-.66,1.1-1.54,1.34-2.65l.65-2.7c-.66.66-1.35,1.18-2.08,1.56-.73.38-1.5.57-2.31.57-1.06,0-1.93-.38-2.63-1.13s-1.04-1.86-1.04-3.32c0-1.16.19-2.25.56-3.26.37-1.01.88-1.9,1.51-2.67s1.35-1.36,2.14-1.79c.8-.43,1.62-.65,2.47-.65.66,0,1.25.17,1.78.52.53.35.95.81,1.26,1.38h.08l.52-1.59h1.61l-2.65,13.23c-.33,1.65-.99,2.91-1.99,3.8-1,.88-2.28,1.33-3.86,1.33ZM284.75,50.45c.59,0,1.24-.19,1.95-.56.71-.37,1.36-.92,1.95-1.65l1.12-5.41c-.38-.68-.78-1.16-1.21-1.44-.42-.29-.88-.43-1.36-.43-.61,0-1.19.18-1.76.53s-1.07.84-1.51,1.44c-.44.61-.79,1.29-1.05,2.05s-.39,1.56-.39,2.39c0,1.02.2,1.79.61,2.3.41.51.96.77,1.65.77Z"/>
    </g>
  </g>
</svg>