<?xml version="1.0" encoding="UTF-8"?>
<svg id="Layer_1" data-name="Layer 1" xmlns="http://www.w3.org/2000/svg" width="512" height="512" viewBox="0 0 512 512">
  <path d="M340.81,477.45c-.76,26.74-42.79,27.51-43.55-3.82v-1.53l-.76-6.11s0-7.64-2.29-19.86c-1.53-12.22-5.35-29.03-12.22-45.08-6.88-16.04-14.52-29.03-20.63-37.44-1.53-3.06-9.17-3.06-11.46,0-6.11,8.4-13.75,21.39-20.63,37.44-6.11,16.04-9.93,32.85-12.22,45.08-1.53,12.22-2.29,19.86-2.29,19.86l-.76,6.11v1.53c-.76,31.33-43.55,29.8-43.55,3.82v-5.35c0-.76,3.06-42.02,22.16-90.16,19.86-48.13,46.61-75.64,47.37-76.4,4.58-4.58,9.93-6.88,16.04-6.88,5.35,0,11.46,2.29,16.04,6.88.76.76,28.27,28.27,47.37,76.4,19.1,48.13,22.16,89.39,22.16,90.16l-.76,5.35ZM486.74,239.07c-.76,0-40.49-9.93-91.68-6.88-51.19,3.82-85.57,21.39-86.34,21.39-5.35,3.06-9.93,7.64-11.46,13.75-1.53,5.35-1.53,12.22,1.53,17.57.76.76,18.34,35.91,57.3,68.76,38.97,33.62,77.17,48.9,77.93,48.9l4.58,1.53c24.45,7.64,38.97-32.09,9.17-42.79h-.76l-5.35-2.29s-6.88-3.06-18.34-9.17c-10.7-6.11-25.21-14.52-38.97-25.98-12.99-11.46-22.92-22.92-29.03-31.33-2.29-3.06,0-9.93,3.82-11.46,9.93-3.06,24.45-6.88,42.02-8.4,17.57-1.53,34.38,0,46.61,2.29,12.22,1.53,19.86,3.82,19.86,3.82l6.11,1.53h1.53c29.8,9.17,42.02-32.09,17.57-40.49l-6.11-.76ZM312.54,27.43c-.76.76-22.16,35.91-34.38,86.34-12.99,50.43-6.88,88.63-6.88,90.16.76,6.11,4.58,11.46,9.17,15.28,4.58,3.06,10.7,5.35,16.81,3.82.76,0,38.97-6.11,82.52-33.62,43.55-27.51,69.53-59.59,70.29-60.36l3.06-4.58c15.28-21.39-18.34-47.37-37.44-22.16l-.76.76-3.82,4.58s-4.58,6.11-13.75,14.52c-9.17,8.4-21.39,19.86-36.67,29.03-14.52,9.17-28.27,15.28-38.97,18.34-3.82,1.53-9.93-3.06-9.17-6.88,0-10.7.76-25.98,5.35-42.79,3.82-16.81,10.7-32.85,16.04-44.31,5.35-11.46,9.93-18.34,9.93-18.34l3.82-3.82.76-1.53c17.57-25.98-16.81-50.43-32.85-29.03l-3.06,4.58ZM59.64,129.81c.76.76,26.74,32.85,70.29,60.36,43.55,27.51,81.75,33.62,82.52,33.62,6.11.76,12.22-.76,16.81-3.82,4.58-3.82,8.4-9.17,9.17-15.28,0-.76,6.11-39.73-6.11-90.16-12.22-50.43-34.38-85.57-34.38-86.34l-3.06-4.58c-15.28-21.39-50.43,3.06-32.85,29.03l.76,1.53,3.06,5.35s3.82,6.88,9.93,18.34c5.35,11.46,12.22,26.74,16.04,44.31,3.82,16.81,5.35,32.09,5.35,42.79,0,3.82-6.11,8.4-9.17,6.88-9.93-3.06-23.69-9.17-38.97-18.34-14.52-9.17-27.51-20.63-36.67-29.03-9.17-8.4-13.75-14.52-13.75-14.52l-3.82-4.58-.76-.76c-19.1-25.21-52.72.76-37.44,22.16l3.06,3.06ZM77.22,404.1c.76,0,38.97-16.04,77.93-48.9,38.97-33.62,57.3-68,57.3-68.76,3.06-5.35,3.06-12.22,1.53-17.57-1.53-5.35-6.11-10.7-11.46-13.75-.76-.76-35.15-18.34-86.34-21.39-51.19-3.82-90.92,6.88-91.68,6.88l-5.35,1.53c-24.45,8.4-12.22,49.66,17.57,40.49h1.53l6.11-1.53s7.64-2.29,19.86-3.82c12.22-1.53,29.03-3.06,46.61-2.29,17.57,1.53,32.09,4.58,42.02,8.4,3.82,1.53,6.11,8.4,3.82,11.46-6.11,8.4-16.04,19.86-29.03,31.33-12.99,11.46-27.51,19.86-38.97,25.98-10.7,6.11-18.34,8.4-18.34,8.4l-5.35,2.29-1.53.76c-29.03,10.7-15.28,50.43,9.17,42.79l4.58-2.29Z" style="fill: #fff; stroke-width: 0px;"/>
</svg>