<?xml version="1.0" encoding="UTF-8"?>
<svg id="Layer_1" data-name="Layer 1" xmlns="http://www.w3.org/2000/svg" width="512" height="512" viewBox="0 0 512 512">
  <path d="M8,96c0-26.51,21.49-48,48-48s48,21.49,48,48-21.49,48-48,48S8,122.51,8,96ZM56,208c26.51,0,48,21.49,48,48s-21.49,48-48,48-48-21.49-48-48,21.49-48,48-48ZM56,368c26.51,0,48,21.49,48,48s-21.49,48-48,48-48-21.49-48-48,21.49-48,48-48ZM183.5,54.4c5.5-4.2,12.3-6.4,19.2-6.4h213.3c13.3,0,24,10.7,24,24v48c0,13.3-10.7,24-24,24h-213.3c-6.9,0-13.7-2.2-19.2-6.4l-38.4-28.8c-8.5-6.4-8.5-19.2,0-25.6,0,0,38.4-28.8,38.4-28.8ZM145.1,243.2l38.4-28.8c5.5-4.2,12.3-6.4,19.2-6.4h277.3c13.3,0,24,10.7,24,24v48c0,13.3-10.7,24-24,24H202.7c-6.9,0-13.7-2.2-19.2-6.4l-38.4-28.8c-8.5-6.4-8.5-19.2,0-25.6h0ZM145.1,403.2l38.4-28.8c5.5-4.2,12.3-6.4,19.2-6.4h213.3c13.3,0,24,10.7,24,24v48c0,13.3-10.7,24-24,24h-213.3c-6.9,0-13.7-2.2-19.2-6.4l-38.4-28.8c-8.5-6.4-8.5-19.2,0-25.6h0Z" style="fill: #fff; stroke-width: 0px;"/>
</svg>