<?xml version="1.0" encoding="UTF-8"?>
<svg id="Layer_1" data-name="Layer 1" xmlns="http://www.w3.org/2000/svg" width="195.34" height="55.31" viewBox="0 0 195.34 55.31">
  <g>
    <path d="M38.44,52.42c0-.09-.35-4.82-2.54-10.33-2.19-5.52-5.34-8.67-5.43-8.75-.53-.53-1.23-.79-1.84-.79-.7,0-1.31.26-1.84.79-.09.09-3.15,3.24-5.43,8.75-2.19,5.52-2.54,10.24-2.54,10.33v.61c0,2.98,4.9,3.15,4.99-.44v-.18l.09-.7s.09-.88.26-2.28c.26-1.4.7-3.33,1.4-5.17.79-1.84,1.66-3.33,2.36-4.29.26-.35,1.14-.35,1.31,0,.7.96,1.58,2.45,2.36,4.29.79,1.84,1.23,3.76,1.4,5.17.26,1.4.26,2.28.26,2.28l.09.7v.18c.09,3.59,4.9,3.5,4.99.44,0,0,.09-.61.09-.61Z" style="fill: #ed8a22; stroke-width: 0px;"/>
    <path d="M55.07,25.71c-.09,0-4.64-1.14-10.51-.79-5.87.44-9.81,2.45-9.89,2.45-.61.35-1.14.88-1.31,1.58-.18.61-.18,1.4.18,2.01.09.09,2.1,4.11,6.57,7.88,4.47,3.85,8.84,5.6,8.93,5.6l.53.18c2.8.88,4.47-3.68,1.05-4.9h-.09l-.61-.26s-.79-.35-2.1-1.05c-1.23-.7-2.89-1.66-4.47-2.98-1.49-1.31-2.63-2.63-3.33-3.59-.26-.35,0-1.14.44-1.31,1.14-.35,2.8-.79,4.82-.96,2.01-.18,3.94,0,5.34.26,1.4.18,2.28.44,2.28.44l.7.18h.18c3.41,1.05,4.82-3.68,2.01-4.64l-.7-.09Z" style="fill: #ed8a22; stroke-width: 0px;"/>
    <path d="M35.11,1.46c-.09.09-2.54,4.11-3.94,9.89-1.49,5.78-.79,10.16-.79,10.33.09.7.53,1.31,1.05,1.75.53.35,1.23.61,1.93.44.09,0,4.47-.7,9.46-3.85s7.97-6.83,8.05-6.92l.35-.53c1.75-2.45-2.1-5.43-4.29-2.54l-.09.09-.44.53s-.53.7-1.58,1.66c-1.05.96-2.45,2.28-4.2,3.33-1.66,1.05-3.24,1.75-4.47,2.1-.44.18-1.14-.35-1.05-.79,0-1.23.09-2.98.61-4.9.44-1.93,1.23-3.76,1.84-5.08.61-1.31,1.14-2.1,1.14-2.1l.44-.44.09-.18c2.01-2.98-1.93-5.78-3.76-3.33l-.35.53Z" style="fill: #ed8a22; stroke-width: 0px;"/>
    <path d="M6.13,13.19c.09.09,3.06,3.76,8.05,6.92,4.99,3.15,9.37,3.85,9.46,3.85.7.09,1.4-.09,1.93-.44.53-.44.96-1.05,1.05-1.75,0-.09.7-4.55-.7-10.33-1.4-5.78-3.94-9.81-3.94-9.89l-.35-.53c-1.75-2.45-5.78.35-3.76,3.33l.09.18.35.61s.44.79,1.14,2.1c.61,1.31,1.4,3.06,1.84,5.08.44,1.93.61,3.68.61,4.9,0,.44-.7.96-1.05.79-1.14-.35-2.71-1.05-4.47-2.1-1.66-1.05-3.15-2.36-4.2-3.33-1.05-.96-1.58-1.66-1.58-1.66l-.44-.53-.09-.09c-2.19-2.89-6.04.09-4.29,2.54l.35.35Z" style="fill: #0b846f; stroke-width: 0px;"/>
    <path d="M8.15,44.62c.09,0,4.47-1.84,8.93-5.6,4.47-3.85,6.57-7.79,6.57-7.88.35-.61.35-1.4.18-2.01-.18-.61-.7-1.23-1.31-1.58-.09-.09-4.03-2.1-9.89-2.45-5.87-.44-10.42.79-10.51.79l-.61.18c-2.8.96-1.4,5.69,2.01,4.64h.18l.7-.18s.88-.26,2.28-.44c1.4-.18,3.33-.35,5.34-.26,2.01.18,3.68.53,4.82.96.44.18.7.96.44,1.31-.7.96-1.84,2.28-3.33,3.59-1.49,1.31-3.15,2.28-4.47,2.98-1.23.7-2.1.96-2.1.96l-.61.26-.18.09c-3.33,1.23-1.75,5.78,1.05,4.9,0,0,.53-.26.53-.26Z" style="fill: #ed8a22; stroke-width: 0px;"/>
  </g>
  <g>
    <path d="M68.16,54.43V.88h11.64l14.76,27.63c.93,1.8,1.83,3.75,2.71,5.82.88,2.08,1.72,4.18,2.54,6.31h.33c-.28-2.95-.57-6.1-.9-9.43-.33-3.33-.49-6.5-.49-9.51V.88h10.58v53.55h-11.81l-14.6-27.63c-.93-1.8-1.85-3.73-2.75-5.78-.9-2.05-1.76-4.14-2.58-6.27h-.33c.27,2.9.57,5.99.9,9.27s.49,6.51.49,9.68v20.75h-10.5Z" style="fill: #0b846f; stroke-width: 0px;"/>
    <path d="M115.71,54.43v-6.81c4.54-4.1,8.53-7.91,11.97-11.44,3.44-3.53,6.13-6.76,8.08-9.72,1.94-2.95,2.91-5.68,2.91-8.2s-.69-4.66-2.05-6.11c-1.37-1.45-3.31-2.17-5.82-2.17-1.91,0-3.66.55-5.25,1.64-1.59,1.09-3.03,2.38-4.35,3.85l-5.82-5.74c2.46-2.73,4.99-4.82,7.59-6.27,2.6-1.45,5.7-2.17,9.31-2.17,3.39,0,6.36.68,8.9,2.05,2.54,1.37,4.52,3.27,5.95,5.7,1.42,2.43,2.13,5.26,2.13,8.49s-.86,6.37-2.58,9.43c-1.72,3.06-4.01,6.14-6.85,9.22-2.84,3.09-5.9,6.27-9.18,9.55,1.31-.16,2.79-.3,4.43-.41,1.64-.11,3.06-.16,4.27-.16h12.38v9.27h-36Z" style="fill: #0b846f; stroke-width: 0px;"/>
    <path d="M169.26,54.43V10.15h-15.09V.88h41.16v9.27h-15.01v44.28h-11.07Z" style="fill: #0b846f; stroke-width: 0px;"/>
  </g>
</svg>