<?xml version="1.0" encoding="UTF-8"?>
<svg id="Layer_1" data-name="Layer 1" xmlns="http://www.w3.org/2000/svg" width="598.88" height="301.57" viewBox="0 0 598.88 301.57">
  <path d="M29.21,191.74c-6.29,0-11.74-1.14-16.36-3.42s-8.44-4.99-11.49-8.14l11.41-12.78c1.62,1.93,3.83,3.58,6.62,4.94,2.79,1.37,5.6,2.06,8.44,2.06,3.85,0,7.33-1.09,10.42-3.27,3.09-2.18,5.55-5.83,7.38-10.96,1.83-5.12,2.74-12.1,2.74-20.92,0-8.01-.74-14.33-2.21-18.95-1.47-4.61-3.45-7.89-5.93-9.81-2.49-1.93-5.2-2.89-8.14-2.89-2.23,0-4.31.56-6.24,1.67-1.93,1.12-3.48,2.87-4.64,5.25-1.17,2.38-1.75,5.45-1.75,9.2,0,3.45.56,6.24,1.67,8.37,1.11,2.13,2.68,3.7,4.72,4.72,2.03,1.02,4.31,1.52,6.85,1.52s5.32-.81,8.07-2.43c2.74-1.62,5.27-4.36,7.61-8.22l.91,14.15c-2.54,3.65-5.78,6.52-9.74,8.6-3.96,2.08-7.61,3.12-10.96,3.12-5.48,0-10.4-1.06-14.76-3.19-4.36-2.13-7.76-5.4-10.19-9.82s-3.65-10.02-3.65-16.81,1.45-12.45,4.34-17.27c2.89-4.82,6.74-8.52,11.56-11.11,4.82-2.59,10.12-3.88,15.9-3.88,4.66,0,9.15.91,13.47,2.74,4.31,1.83,8.16,4.67,11.56,8.52,3.4,3.86,6.11,8.8,8.14,14.83,2.03,6.04,3.04,13.26,3.04,21.68,0,9.03-1.06,16.87-3.19,23.51-2.13,6.64-5.02,12.1-8.67,16.36-3.65,4.26-7.81,7.43-12.48,9.51s-9.49,3.12-14.45,3.12Z" style="fill: #fff; stroke-width: 0px;"/>
  <path d="M105.25,191.74c-10.25,0-18.49-4.31-24.73-12.93-6.24-8.62-9.36-21.15-9.36-37.58s3.12-28.96,9.36-37.28c6.24-8.32,14.48-12.48,24.73-12.48s18.64,4.19,24.88,12.55c6.24,8.37,9.36,20.77,9.36,37.2s-3.12,28.96-9.36,37.58c-6.24,8.62-14.53,12.93-24.88,12.93ZM105.25,175.15c2.64,0,5.02-.99,7.15-2.97,2.13-1.98,3.8-5.43,5.02-10.35,1.22-4.92,1.83-11.79,1.83-20.62s-.61-15.77-1.83-20.54c-1.22-4.77-2.89-8.07-5.02-9.89-2.13-1.82-4.52-2.74-7.15-2.74s-4.87.91-7,2.74c-2.13,1.83-3.8,5.12-5.02,9.89-1.22,4.77-1.83,11.61-1.83,20.54s.61,15.7,1.83,20.62c1.22,4.92,2.89,8.37,5.02,10.35,2.13,1.98,4.46,2.97,7,2.97Z" style="fill: #fff; stroke-width: 0px;"/>
  <path d="M176.72,191.74c-10.25,0-18.49-4.31-24.73-12.93-6.24-8.62-9.36-21.15-9.36-37.58s3.12-28.96,9.36-37.28c6.24-8.32,14.48-12.48,24.73-12.48s18.64,4.19,24.88,12.55c6.24,8.37,9.36,20.77,9.36,37.2s-3.12,28.96-9.36,37.58c-6.24,8.62-14.53,12.93-24.88,12.93ZM176.72,175.15c2.64,0,5.02-.99,7.15-2.97,2.13-1.98,3.8-5.43,5.02-10.35,1.22-4.92,1.83-11.79,1.83-20.62s-.61-15.77-1.83-20.54c-1.22-4.77-2.89-8.07-5.02-9.89-2.13-1.82-4.52-2.74-7.15-2.74s-4.87.91-7,2.74c-2.13,1.83-3.8,5.12-5.02,9.89-1.22,4.77-1.83,11.61-1.83,20.54s.61,15.7,1.83,20.62c1.22,4.92,2.89,8.37,5.02,10.35,2.13,1.98,4.46,2.97,7,2.97Z" style="fill: #fff; stroke-width: 0px;"/>
  <path d="M252.23,178.27v-31.2h-29.85v-16.87h29.85v-31.2h17.37v31.2h29.85v16.87h-29.85v31.2h-17.37Z" style="fill: #fff; stroke-width: 0px;"/>
  <g>
    <path d="M339.41,80.28V1.45h21.76c7.66,0,14.33,1.37,20.01,4.11,5.68,2.74,10.1,6.99,13.24,12.76,3.14,5.76,4.72,13.16,4.72,22.19s-1.55,16.49-4.66,22.37c-3.1,5.88-7.44,10.26-13,13.12-5.56,2.86-11.97,4.29-19.22,4.29h-22.85ZM357.3,65.9h2.9c4.19,0,7.82-.81,10.88-2.42,3.06-1.61,5.46-4.27,7.19-7.98,1.73-3.71,2.6-8.71,2.6-14.99s-.87-11.22-2.6-14.81c-1.73-3.59-4.13-6.12-7.19-7.62-3.06-1.49-6.69-2.24-10.88-2.24h-2.9v50.06Z" style="fill: #fff; stroke-width: 0px;"/>
    <path d="M439.77,81.73c-6.29,0-11.81-1.57-16.57-4.72s-8.46-7.76-11.12-13.84c-2.66-6.08-3.99-13.64-3.99-22.67s1.33-16.18,3.99-22.19c2.66-6,6.37-10.56,11.12-13.66,4.76-3.1,10.28-4.65,16.57-4.65s11.81,1.55,16.56,4.65c4.75,3.1,8.46,7.66,11.12,13.66,2.66,6.01,3.99,13.4,3.99,22.19s-1.33,16.59-3.99,22.67c-2.66,6.09-6.37,10.7-11.12,13.84-4.76,3.14-10.28,4.72-16.56,4.72ZM439.77,66.38c2.74,0,5.12-.99,7.13-2.96,2.01-1.97,3.57-4.88,4.65-8.71,1.09-3.83,1.63-8.56,1.63-14.21s-.54-10.08-1.63-13.78c-1.09-3.71-2.64-6.53-4.65-8.46-2.02-1.93-4.39-2.9-7.13-2.9s-5.12.97-7.13,2.9c-2.02,1.93-3.57,4.76-4.65,8.46-1.09,3.71-1.63,8.3-1.63,13.78s.54,10.38,1.63,14.21c1.09,3.83,2.64,6.73,4.65,8.71,2.01,1.98,4.39,2.96,7.13,2.96Z" style="fill: #fff; stroke-width: 0px;"/>
    <path d="M484.98,80.28v-14.99h18.38V16.44h-18.38V1.45h54.65v14.99h-18.38v48.85h18.38v14.99h-54.65Z" style="fill: #fff; stroke-width: 0px;"/>
    <path d="M584.86,42.68c-4.11,0-7.48-1.37-10.1-4.11-2.62-2.74-3.93-6.09-3.93-10.04s1.31-7.31,3.93-10.1c2.62-2.78,5.99-4.17,10.1-4.17s7.57,1.39,10.16,4.17c2.58,2.78,3.87,6.15,3.87,10.1s-1.29,7.3-3.87,10.04c-2.58,2.74-5.97,4.11-10.16,4.11ZM584.86,81.73c-4.11,0-7.48-1.37-10.1-4.11-2.62-2.74-3.93-6.08-3.93-10.04s1.31-7.31,3.93-10.1c2.62-2.78,5.99-4.17,10.1-4.17s7.57,1.39,10.16,4.17c2.58,2.78,3.87,6.15,3.87,10.1s-1.29,7.3-3.87,10.04c-2.58,2.74-5.97,4.11-10.16,4.11Z" style="fill: #fff; stroke-width: 0px;"/>
    <path d="M358.03,191.65c-4.03,0-7.52-.81-10.46-2.42-2.94-1.61-5.22-3.79-6.83-6.53-1.61-2.74-2.42-5.8-2.42-9.19,0-6.69,3.04-11.81,9.13-15.36,6.09-3.55,16.22-5.72,30.41-6.53-.24-1.85-.85-3.43-1.81-4.72-.97-1.29-2.36-2.28-4.17-2.96-1.81-.68-4.09-1.03-6.83-1.03-1.93,0-3.87.22-5.8.67-1.94.44-3.93,1.09-5.99,1.93-2.05.85-4.21,1.83-6.47,2.96l-6.29-11.61c2.74-1.61,5.62-3.02,8.65-4.23,3.02-1.21,6.17-2.16,9.43-2.84,3.27-.68,6.59-1.03,9.98-1.03,5.64,0,10.48.99,14.51,2.96,4.03,1.98,7.13,4.96,9.31,8.95,2.18,3.99,3.26,9.05,3.26,15.17v34.34h-14.51l-1.33-6.77h-.48c-2.98,2.26-6.29,4.19-9.91,5.8-3.63,1.61-7.42,2.42-11.37,2.42ZM363.71,177.87c2.66,0,5.16-.54,7.5-1.63,2.34-1.09,4.55-2.44,6.65-4.05v-9.92c-5.88.32-10.46.93-13.72,1.81-3.27.89-5.54,2.02-6.83,3.38-1.29,1.37-1.93,2.94-1.93,4.72,0,1.21.34,2.26,1.03,3.14.68.89,1.65,1.53,2.9,1.93,1.25.4,2.72.6,4.41.6Z" style="fill: #fff; stroke-width: 0px;"/>
    <path d="M417.52,190.2v-59.97h14.51l1.45,13.06h.36c2.98-4.92,6.59-8.56,10.82-10.94,4.23-2.38,8.72-3.57,13.48-3.57,2.66,0,4.82.2,6.47.6,1.65.4,3.37,1.01,5.14,1.81l-3.63,14.87c-1.86-.56-3.53-.99-5.02-1.27-1.49-.28-3.37-.42-5.62-.42-3.71,0-7.36,1.09-10.94,3.26-3.59,2.18-6.67,5.97-9.25,11.37v31.2h-17.77Z" style="fill: #fff; stroke-width: 0px;"/>
    <path d="M485.23,190.2v-84.76h17.77v48.97h.48l22.01-24.18h19.47l-41.96,44.86v15.11h-17.77ZM527.55,190.2l-17.41-27.21,10.16-11,26.48,38.21h-19.22Z" style="fill: #fff; stroke-width: 0px;"/>
    <path d="M584.86,152.6c-4.11,0-7.48-1.37-10.1-4.11-2.62-2.74-3.93-6.09-3.93-10.04s1.31-7.31,3.93-10.1c2.62-2.78,5.99-4.17,10.1-4.17s7.57,1.39,10.16,4.17c2.58,2.78,3.87,6.15,3.87,10.1s-1.29,7.3-3.87,10.04c-2.58,2.74-5.97,4.11-10.16,4.11ZM584.86,191.65c-4.11,0-7.48-1.37-10.1-4.11s-3.93-6.08-3.93-10.04,1.31-7.32,3.93-10.1c2.62-2.78,5.99-4.17,10.1-4.17s7.57,1.39,10.16,4.17c2.58,2.78,3.87,6.15,3.87,10.1s-1.29,7.3-3.87,10.04c-2.58,2.74-5.97,4.11-10.16,4.11Z" style="fill: #fff; stroke-width: 0px;"/>
    <path d="M340.02,300.12v-78.83h27.93c5.72,0,10.9.79,15.54,2.36,4.63,1.57,8.34,4.21,11.12,7.92,2.78,3.71,4.17,8.75,4.17,15.11s-1.41,11.17-4.23,15.11c-2.82,3.95-6.57,6.87-11.24,8.77-4.68,1.89-9.79,2.84-15.36,2.84h-10.16v26.72h-17.77ZM357.79,259.25h9.07c4.92,0,8.56-1.09,10.94-3.26,2.38-2.18,3.57-5.28,3.57-9.31s-1.23-7.11-3.69-8.77c-2.46-1.65-6.07-2.48-10.82-2.48h-9.07v23.82Z" style="fill: #fff; stroke-width: 0px;"/>
    <path d="M411.96,300.12v-78.83h21.76c7.66,0,14.33,1.37,20.01,4.11,5.68,2.74,10.1,6.99,13.24,12.76,3.14,5.76,4.72,13.16,4.72,22.19s-1.55,16.49-4.66,22.37c-3.1,5.88-7.44,10.26-13,13.12-5.56,2.86-11.97,4.29-19.22,4.29h-22.85ZM429.85,285.73h2.9c4.19,0,7.82-.8,10.88-2.42,3.06-1.61,5.46-4.27,7.19-7.98,1.73-3.71,2.6-8.71,2.6-14.99s-.87-11.22-2.6-14.81c-1.73-3.59-4.13-6.12-7.19-7.62-3.06-1.49-6.69-2.24-10.88-2.24h-2.9v50.06Z" style="fill: #fff; stroke-width: 0px;"/>
    <path d="M484.98,300.12v-78.83h26.48c5.48,0,10.4.58,14.75,1.75,4.35,1.17,7.8,3.16,10.34,5.98,2.54,2.82,3.81,6.77,3.81,11.85,0,3.55-1.09,6.97-3.27,10.28-2.18,3.31-5.6,5.56-10.28,6.77v.48c5.64.97,9.92,2.96,12.82,5.99,2.9,3.02,4.35,7.19,4.35,12.51s-1.33,9.69-3.99,13.12c-2.66,3.43-6.27,5.97-10.82,7.62-4.55,1.65-9.69,2.48-15.42,2.48h-28.78ZM502.76,252.97h7.86c4.35,0,7.5-.87,9.43-2.6,1.93-1.73,2.9-4.09,2.9-7.07s-.99-4.98-2.96-6.23c-1.98-1.25-5.06-1.87-9.25-1.87h-7.98v17.77ZM502.76,286.22h9.55c4.84,0,8.42-.89,10.76-2.66,2.34-1.77,3.51-4.43,3.51-7.98s-1.17-5.96-3.51-7.5c-2.34-1.53-5.92-2.3-10.76-2.3h-9.55v20.43Z" style="fill: #fff; stroke-width: 0px;"/>
    <path d="M584.86,262.52c-4.11,0-7.48-1.37-10.1-4.11-2.62-2.74-3.93-6.08-3.93-10.04s1.31-7.31,3.93-10.1,5.99-4.17,10.1-4.17,7.57,1.39,10.16,4.17c2.58,2.78,3.87,6.15,3.87,10.1s-1.29,7.3-3.87,10.04c-2.58,2.74-5.97,4.11-10.16,4.11ZM584.86,301.57c-4.11,0-7.48-1.37-10.1-4.11s-3.93-6.08-3.93-10.04,1.31-7.32,3.93-10.1c2.62-2.78,5.99-4.17,10.1-4.17s7.57,1.39,10.16,4.17c2.58,2.78,3.87,6.15,3.87,10.1s-1.29,7.3-3.87,10.04c-2.58,2.74-5.97,4.11-10.16,4.11Z" style="fill: #fff; stroke-width: 0px;"/>
  </g>
</svg>