<?xml version="1.0" encoding="UTF-8"?><svg id="Layer_2" xmlns="http://www.w3.org/2000/svg" width="100" height="100" viewBox="0 0 1920 914.46"><defs><style>.cls-1{fill:#171717;}</style></defs><g id="Layer_1-2"><g id="Wordmark_Text"><g><path class="cls-1" d="m11.52,126V3.97h34.57v118.08c0,43.72,16.32,61.21,53.7,61.21,35.37,0,51.27-20.65,51.27-57.64V3.97h31.82v118.89c0,54.46-27.04,89.04-84.31,89.04S11.52,178.09,11.52,126Z"/><path class="cls-1" d="m259.97,3.97h34.59l90.24,123.64c11.53,16.31,20.66,33.8,21.06,33.8h.8s-1.6-15.91-1.6-31.4V3.97h31.02v204.35h-31.02l-95.81-131.2c-9.54-13.91-18.3-30.23-18.3-30.23h-.4s1.2,13.54,1.2,26.25v135.18h-31.79V3.97Z"/><path class="cls-1" d="m517.15,3.97h34.18v204.35h-34.18V3.97Z"/><path class="cls-1" d="m608.57,3.97h36.17l51.69,133.97c5.96,15.12,11.94,34.59,11.94,35h.79c0-.41,5.97-19.48,11.91-35L770.78,3.97h32.99l-79.11,204.35h-33.39L608.57,3.97Z"/><path class="cls-1" d="m859.83,3.97h124.83v27.84h-90.66v56.05h81.12v27.05h-81.12v65.58h92.65v27.84h-126.82V3.97Z"/><path class="cls-1" d="m1056.21,3.97h63.97c47.72,0,75.16,19.47,75.16,56.47,0,34.97-25.44,50.47-56.08,53.66v.8c4.39,3.16,11.95,10.72,24.27,27.81l48.51,65.61h-39.37l-41.36-58.45c-20.27-28.23-25.04-30.6-37.34-30.6h-3.58v89.05h-34.18V3.97Zm63.2,89.86c28.62,0,40.92-10.75,40.92-31.81s-13.51-31.42-42.9-31.42h-27.05v63.23h29.02Z"/><path class="cls-1" d="m1252.16,191.62l15.12-24.25c5.54,3.97,20.65,16.7,47.69,16.7,24.25,0,40.14-10.75,40.14-28.63,0-21.46-19.45-27.43-49.28-41.33-26.25-11.94-48.51-26.64-48.51-58.85,0-35.76,30.61-55.24,65.98-55.24,33.43,0,50.52,10.73,59.26,16.68l-14.71,24.26c-7.57-5.17-23.05-13.13-43.34-13.13s-33.8,8.35-33.8,25.84c0,19.48,17.09,25.45,39.35,35.39,28.64,12.72,58.05,27.42,58.05,64.79s-28.62,58.05-72.74,58.05c-34.18,0-54.89-12.73-63.2-20.27Z"/><path class="cls-1" d="m1455.28,3.97h34.18v204.35h-34.18V3.97Z"/><path class="cls-1" d="m1609.52,32.2h-62.42V3.97h159.42v28.23h-62.42v176.12h-34.58V32.2Z"/><path class="cls-1" d="m1815.82,130.78L1743.88,3.97h37.36l52.49,97h.79l51.69-97h33.39l-69.58,126.82v77.53h-34.2v-77.53Z"/><path class="cls-1" d="m0,457.81c0-56.06,39.36-106.53,107.74-106.53s107.75,49.28,107.75,105.32-38.57,106.56-106.97,106.56S0,513.85,0,457.81Zm179.29,0c0-42.14-23.45-78.73-70.78-78.73s-71.95,36.19-71.95,77.52,23.86,78.33,71.17,78.33,71.56-35.39,71.56-77.12Z"/><path class="cls-1" d="m275.87,355.25h122.85v27.8h-88.67v58.06h78.33v27.39h-78.33v91.08h-34.18v-204.32Z"/><path class="cls-1" d="m0,808.27c0-56.82,38.96-105.72,108.12-105.72,27.45,0,45.73,5.98,61.62,16.28l-16.28,25.44c-11.94-7.97-26.26-13.14-46.12-13.14-46.53,0-70.77,32.22-70.77,75.94s23.07,78.74,71.56,78.74c23.07,0,38.57-7.55,50.52-16.27l14.3,24.2c-11.13,9.54-34.96,20.71-66,20.71-69.58,0-106.94-49.33-106.94-106.19Z"/><path class="cls-1" d="m287.01,706.52h33.41l83.07,204.36h-35.76l-17.51-44.52h-95.02l-16.68,44.52h-33.83l82.32-204.36Zm52.87,131.98l-24.24-62.4c-6.76-17.89-12.73-36.99-12.73-36.99h-.8s-6.34,19.91-12.72,36.99l-23.85,62.4h74.34Z"/><path class="cls-1" d="m453.54,706.52h35v176.5h86.26v27.86h-121.26v-204.36Z"/><path class="cls-1" d="m633.23,706.52h34.18v204.36h-34.18v-204.36Z"/><path class="cls-1" d="m743.31,706.52h122.87v27.84h-88.65v58.03h78.29v27.43h-78.29v91.06h-34.23v-204.36Z"/><path class="cls-1" d="m910.28,809.07c0-56.04,39.36-106.52,107.75-106.52s107.77,49.29,107.77,105.33-38.57,106.58-106.98,106.58-108.53-49.33-108.53-105.39Zm179.32,0c0-42.13-23.47-78.7-70.79-78.7s-71.97,36.19-71.97,77.51,23.9,78.32,71.18,78.32,71.58-35.39,71.58-77.13Z"/><path class="cls-1" d="m1177.01,706.52h64.03c47.7,0,75.16,19.48,75.16,56.46,0,34.98-25.48,50.48-56.06,53.64v.8c4.37,3.16,11.9,10.77,24.24,27.84l48.51,65.62h-39.35l-41.36-58.45c-20.27-28.24-25.04-30.65-37.38-30.65h-3.56v89.11h-34.22v-204.36Zm63.24,89.85c28.64,0,40.94-10.73,40.94-31.8s-13.53-31.4-42.93-31.4h-27.03v63.2h29.02Z"/><path class="cls-1" d="m1382.92,706.52h34.58l90.27,123.67c11.53,16.27,20.67,33.78,21.07,33.78h.79s-1.57-15.9-1.57-31.4v-126.04h31v204.36h-31l-95.81-131.18c-9.56-13.95-18.3-30.25-18.3-30.25h-.4s1.19,13.53,1.19,26.21v135.22h-31.82v-204.36Z"/><path class="cls-1" d="m1634.56,706.52h34.2v204.36h-34.2v-204.36Z"/><path class="cls-1" d="m1803.52,706.52h33.39l83.09,204.36h-35.79l-17.49-44.52h-95.02l-16.71,44.52h-33.78l82.3-204.36Zm52.88,131.98l-24.24-62.4c-6.8-17.89-12.76-36.99-12.76-36.99h-.77s-6.36,19.91-12.74,36.99l-23.87,62.4h74.37Z"/></g></g></g></svg>